/* XPM */
static char const * column_wight_xpm[] = {
"16 16 49 1",
" 	c None",
".	c #1984B9",
"+	c #0E7EB6",
"@	c #097BB4",
"#	c #087AB4",
"$	c #FFFFFF",
"%	c #0A7CB5",
"&	c #E0F6FF",
"*	c #DEF4FF",
"=	c #DEF5FF",
"-	c #E1F6FF",
";	c #0E7FB7",
">	c #1584BB",
",	c #0D80BA",
"'	c #097CB5",
")	c #484340",
"!	c #49403C",
"~	c #48413F",
"{	c #493B36",
"]	c #2DA9DF",
"^	c #939291",
"/	c #8D8D8D",
"(	c #8B8A8A",
"_	c #949290",
":	c #2DA6DB",
"<	c #2DA4D9",
"[	c #2AA1D5",
"}	c #8F8D8C",
"|	c #918D8B",
"1	c #2BA0D4",
"2	c #2CA2D7",
"3	c #299ACF",
"4	c #2999CC",
"5	c #2799CD",
"6	c #1E99D3",
"7	c #8D8B8A",
"8	c #DAF5FF",
"9	c #918B88",
"0	c #2299D1",
"a	c #2899CC",
"b	c #2999CD",
"c	c #2491C5",
"d	c #2492C7",
"e	c #2493C7",
"f	c #2591C6",
"g	c #1F8BC0",
"h	c #8B8988",
"i	c #888685",
"j	c #208CC1",
"                ",
".+@##########@+.",
"+$$$$$$$$$$$$$$+",
"%$&*=========-$%",
";$$$$$$$$$$$$$$;",
">,'##########',>",
"                ",
")              !",
"                ",
"~              {",
"  ]  ^/((/_  :  ",
" <[  }$$$$|  12 ",
"3456 7$88$9 0ab3",
" cd  }$$$$|  ef ",
"  g  h/((/i  j  ",
"                "};
