/* XPM */
static char const * folder_table_xpm[] = {
"16 16 148 2",
"  	c None",
". 	c #D29843",
"+ 	c #D0943D",
"@ 	c #CF923A",
"# 	c #D19741",
"$ 	c #FFFCDC",
"% 	c #FFF7D8",
"& 	c #FFFADB",
"* 	c #CD8E35",
"= 	c #CE9139",
"- 	c #D29842",
"; 	c #CF923B",
"> 	c #FFF7D5",
", 	c #F9D160",
"' 	c #F8D061",
") 	c #FDEBB4",
"! 	c #FFF6D9",
"~ 	c #FFF8DA",
"{ 	c #FFF9DA",
"] 	c #FFF9DB",
"^ 	c #FFFADA",
"/ 	c #FFFEDF",
"( 	c #FFF6CA",
"_ 	c #F9D569",
": 	c #F9D56C",
"< 	c #F9D46A",
"[ 	c #FAD569",
"} 	c #FBD668",
"| 	c #FDD768",
"1 	c #FFD96A",
"2 	c #FFDB6B",
"3 	c #FFDB69",
"4 	c #FFFEDA",
"5 	c #D3953C",
"6 	c #CF923C",
"7 	c #FFF3C0",
"8 	c #FBD970",
"9 	c #FBDA73",
"0 	c #FBDA74",
"a 	c #FFDB72",
"b 	c #FFDE6F",
"c 	c #FFE16D",
"d 	c #EFAE47",
"e 	c #DD9232",
"f 	c #DE9332",
"g 	c #DE9331",
"h 	c #DF9431",
"i 	c #E19835",
"j 	c #E29A39",
"k 	c #E39B3B",
"l 	c #CF923D",
"m 	c #FFF3B8",
"n 	c #FEDF77",
"o 	c #FEE07B",
"p 	c #FFE17B",
"q 	c #FFE476",
"r 	c #5C9FA5",
"s 	c #0074C1",
"t 	c #0076C0",
"u 	c #0077C1",
"v 	c #0078C1",
"w 	c #0079C1",
"x 	c #007CC3",
"y 	c #3086AA",
"z 	c #CF933E",
"A 	c #FFF6B2",
"B 	c #DEAC51",
"C 	c #CA8A35",
"D 	c #CD8B33",
"E 	c #DA8E2D",
"F 	c #FFFFFF",
"G 	c #097EB9",
"H 	c #D09540",
"I 	c #F8DD90",
"J 	c #D8A044",
"K 	c #FFFCDD",
"L 	c #FFFBD9",
"M 	c #FFFFD5",
"N 	c #0073BA",
"O 	c #FFC344",
"P 	c #FFC646",
"Q 	c #7EB5E3",
"R 	c #FFC746",
"S 	c #FFC645",
"T 	c #7EB3DC",
"U 	c #097CB5",
"V 	c #D19642",
"W 	c #EAC471",
"X 	c #E6BC6C",
"Y 	c #FFF2BB",
"Z 	c #FFDF74",
"` 	c #FFE570",
" .	c #0071B9",
"..	c #80B3DD",
"+.	c #85B6DE",
"@.	c #8AB8DE",
"#.	c #87B7DF",
"$.	c #86B6DE",
"%.	c #87B5DA",
"&.	c #D19743",
"*.	c #DDAC56",
"=.	c #F5DA8E",
"-.	c #FFEDA2",
";.	c #FFE681",
">.	c #FFEC7D",
",.	c #0071BA",
"'.	c #E2F9FF",
").	c #E6FCFF",
"!.	c #90B9D8",
"~.	c #E8FCFF",
"{.	c #E7FCFF",
"].	c #8FB8D8",
"^.	c #097BB5",
"/.	c #D29944",
"(.	c #D0943F",
"_.	c #FFFBAB",
":.	c #FFF39B",
"<.	c #FFF291",
"[.	c #FFF68B",
"}.	c #0073BB",
"|.	c #EDFCFF",
"1.	c #F1FEFF",
"2.	c #98BAD7",
"3.	c #F3FFFF",
"4.	c #F2FFFF",
"5.	c #97BAD7",
"6.	c #D09845",
"7.	c #D09440",
"8.	c #CF923E",
"9.	c #D2923D",
"0.	c #DF9433",
"a.	c #0077BE",
"b.	c #99B9D4",
"c.	c #9CBCD6",
"d.	c #A0BFD8",
"e.	c #9EBDD6",
"f.	c #9DBCD6",
"g.	c #9FBDD7",
"h.	c #0079C0",
"i.	c #A4BED7",
"j.	c #007CC0",
"k.	c #0E7EB6",
"l.	c #1078AE",
"m.	c #0D7EB6",
"n.	c #097BB4",
"o.	c #087AB4",
"p.	c #087BB4",
"q.	c #1982B7",
". + @ @ + #                     ",
"+ $ % % & * = @ @ @ @ @ + -     ",
"; > , ' ) ! ~ ~ { ] { ^ / +     ",
"; ( _ : < [ } | 1 2 2 3 4 5     ",
"6 7 8 9 0 a b c d e f g h i j k ",
"l m n o p q r s t u v v v w x y ",
"z A B C D E t F F F F F F F F G ",
"H I J K L M N F O P Q R S T F U ",
"V W X Y Z `  .F ..+.@.#.$.%.F U ",
"&.*.=.-.;.>.,.F '.).!.~.{.].F ^.",
"/.(._.:.<.[.}.F |.1.2.3.4.5.F ^.",
"6.. 7.8.9.0.a.F b.c.d.e.f.g.F ^.",
"            h.F F F i.F F i.F U ",
"            j.F F F F F F F F k.",
"            l.m.n.o.p.o.o.^.k.q.",
"                                "};
