/* XPM */
static char const * table_xpm[] = {
"16 16 73 1",
" 	c None",
".	c #1984B9",
"+	c #0E7EB6",
"@	c #097CB6",
"#	c #077BB6",
"$	c #087BB6",
"%	c #087BB5",
"&	c #FFFFFF",
"*	c #097CB5",
"=	c #FFC344",
"-	c #FFC549",
";	c #FFC647",
">	c #7EB5E3",
",	c #FFC746",
"'	c #7EB4E1",
")	c #FFC440",
"!	c #097BB5",
"~	c #7CB1DD",
"{	c #7EB4E0",
"]	c #82B6E0",
"^	c #86B7DE",
"/	c #83B6DF",
"(	c #84B6DD",
"_	c #7FB3DB",
":	c #087BB4",
"<	c #D7F5FF",
"[	c #D9F6FF",
"}	c #DEF9FF",
"|	c #8BB5D7",
"1	c #DFF9FF",
"2	c #8AB5D7",
"3	c #DBF8FF",
"4	c #DFF7FF",
"5	c #E1F8FF",
"6	c #E5FBFF",
"7	c #8FB7D6",
"8	c #E6FBFF",
"9	c #8EB7D5",
"0	c #E3FAFF",
"a	c #8CB3D4",
"b	c #8FB5D5",
"c	c #92B8D7",
"d	c #95BAD8",
"e	c #93B8D7",
"f	c #94B9D8",
"g	c #8FB6D6",
"h	c #EBFBFF",
"i	c #ECFCFF",
"j	c #F0FFFF",
"k	c #96BAD7",
"l	c #F1FFFF",
"m	c #EFFEFF",
"n	c #F2FDFF",
"o	c #F3FEFF",
"p	c #F7FFFF",
"q	c #9ABBD7",
"r	c #F8FFFF",
"s	c #F6FFFF",
"t	c #99B9D4",
"u	c #9ABAD5",
"v	c #9EBCD6",
"w	c #A1BFD8",
"x	c #9EBDD7",
"y	c #A0BFD7",
"z	c #9CBCD6",
"A	c #087AB4",
"B	c #FDFFFF",
"C	c #A0BED7",
"D	c #097BB4",
"E	c #A2BDD6",
"F	c #1880B3",
"G	c #077AB4",
"H	c #1982B7",
".+@#$%$$%$$%@+. ",
"+&&&&&&&&&&&&&+ ",
"*&=-;>,,>,,')&* ",
"!&~{]^//^//(_&! ",
":&<[}|11|1123&: ",
":&45678878890&: ",
":&abcdeedeefg&: ",
":&hijkllkllkm&: ",
":&nopqrrqrrqs&: ",
":&tuvwxxwxxyz&: ",
"A&BB&C&&C&&C&&A ",
"D&&&&E&&E&&E&&D ",
"+&&&&&&&&&&&&&+ ",
"F+DGA:AA:AA:D+H ",
"                ",
"                "};
