/* XPM */
static char const * table_select_column_xpm[] = {
"16 16 109 2",
"  	c None",
". 	c #1984B9",
"+ 	c #0E7EB6",
"@ 	c #097CB6",
"# 	c #077BB6",
"$ 	c #087BB6",
"% 	c #087BB5",
"& 	c #0A7CB5",
"* 	c #0B7DB5",
"= 	c #087CB6",
"- 	c #FFFFFF",
"; 	c #097CB5",
"> 	c #FFC344",
", 	c #FFC549",
"' 	c #FFC647",
") 	c #7EB5E3",
"! 	c #FFC746",
"~ 	c #FFCC47",
"{ 	c #015BB7",
"] 	c #0A5FB4",
"^ 	c #FFC444",
"/ 	c #097BB5",
"( 	c #7CB1DD",
"_ 	c #7EB4E0",
": 	c #82B6E0",
"< 	c #86B7DE",
"[ 	c #85B7E0",
"} 	c #8EBEE2",
"| 	c #0B60B7",
"1 	c #5693CA",
"2 	c #8CBCE1",
"3 	c #7EB3DD",
"4 	c #097BB4",
"5 	c #D6F5FF",
"6 	c #D8F6FF",
"7 	c #DDF9FF",
"8 	c #8AB6D7",
"9 	c #E0FBFF",
"0 	c #E9FFFF",
"a 	c #0A5DB3",
"b 	c #9EC9E9",
"c 	c #E7FFFF",
"d 	c #D9F6FF",
"e 	c #DDF5FF",
"f 	c #DFF6FF",
"g 	c #E3F9FF",
"h 	c #8EB6D6",
"i 	c #E6FBFF",
"j 	c #EFFFFF",
"k 	c #095DB2",
"l 	c #A0C9E8",
"m 	c #EEFFFF",
"n 	c #DFF7FF",
"o 	c #8AB3D4",
"p 	c #8DB5D5",
"q 	c #90B8D7",
"r 	c #93BAD8",
"s 	c #93BAD7",
"t 	c #9DC0DA",
"u 	c #0A5EB2",
"v 	c #6DA1CD",
"w 	c #9BBFDA",
"x 	c #087BB4",
"y 	c #E8FAFF",
"z 	c #E9FBFF",
"A 	c #EDFEFF",
"B 	c #95B9D7",
"C 	c #F0FFFF",
"D 	c #FAFFFF",
"E 	c #075CB1",
"F 	c #A6CBE9",
"G 	c #F8FFFF",
"H 	c #EAFCFF",
"I 	c #EDFCFF",
"J 	c #EFFDFF",
"K 	c #F3FFFF",
"L 	c #99BBD7",
"M 	c #F5FFFF",
"N 	c #065CB1",
"O 	c #ABCEE9",
"P 	c #FEFFFF",
"Q 	c #F0FEFF",
"R 	c #96B8D4",
"S 	c #97B9D5",
"T 	c #9BBCD7",
"U 	c #9EBED8",
"V 	c #9DBED7",
"W 	c #A8C4DA",
"X 	c #085DB2",
"Y 	c #75A3CD",
"Z 	c #A6C3DA",
"` 	c #98BAD5",
" .	c #087AB4",
"..	c #F9FFFF",
"+.	c #FDFFFF",
"@.	c #9EBCD6",
"#.	c #045BB1",
"$.	c #B2CFEA",
"%.	c #FCFFFF",
"&.	c #077AB4",
"*.	c #FBFEFF",
"=.	c #F9FEFF",
"-.	c #9DBCD6",
";.	c #025AB0",
">.	c #B8D3EB",
",.	c #A1BCD5",
"'.	c #0056AE",
").	c #055BB1",
"!.	c #1779AA",
". + @ # $ % $ @ & * * & = @ + . ",
"+ - - - - - - - - - - - - - - + ",
"; - > , ' ) ! ~ { ] ] { ~ ^ - ; ",
"/ - ( _ : < [ } | 1 1 | 2 3 - / ",
"4 - 5 6 7 8 9 0 a b b a c d - 4 ",
"4 - e f g h i j k l l k m n - 4 ",
"4 - o p q r s t u v v u w p - 4 ",
"x - y z A B C D E F F E G H - x ",
"x - I J K L M - N O O N P Q - x ",
"x - R S T U V W X Y Y X Z ` - x ",
" .- ....+.@.- - #.$.$.#.- %.-  .",
"&.- *.=.P -.- - ;.>.>.;.- P - &.",
"4 - - - - ,.- - '.).).'.- - - 4 ",
"+ - - - - - - - - - - - - - - + ",
"!.+ 4 &. .x x 4 & * * & 4 4 + !.",
"                                "};
