/* XPM */
static char const * table_gear_xpm[] = {
"16 16 115 2",
"  	c None",
". 	c #1984B9",
"+ 	c #0E7EB6",
"@ 	c #097CB6",
"# 	c #077BB6",
"$ 	c #087BB6",
"% 	c #087BB5",
"& 	c #FFFFFF",
"* 	c #097CB5",
"= 	c #FFC344",
"- 	c #FFC549",
"; 	c #FFC647",
"> 	c #7EB5E3",
", 	c #FFC746",
"' 	c #7EB4E1",
") 	c #FFC440",
"! 	c #097BB5",
"~ 	c #7CB1DD",
"{ 	c #7EB4E0",
"] 	c #82B6E0",
"^ 	c #86B7DE",
"/ 	c #83B6DF",
"( 	c #83B7E0",
"_ 	c #85B7DE",
": 	c #80B3DC",
"< 	c #087BB4",
"[ 	c #D7F5FF",
"} 	c #D9F6FF",
"| 	c #DEF9FF",
"1 	c #8BB5D7",
"2 	c #DFFAFF",
"3 	c #8BB7D8",
"4 	c #E1FDFF",
"5 	c #E2FFFF",
"6 	c #8CBADD",
"7 	c #DCFAFF",
"8 	c #077BB5",
"9 	c #DFF7FF",
"0 	c #E1F8FF",
"a 	c #E5FBFF",
"b 	c #90B8D6",
"c 	c #E7FDFF",
"d 	c #E7FFFF",
"e 	c #91BCDD",
"f 	c #EAFFFF",
"g 	c #7B7877",
"h 	c #E6FFFF",
"i 	c #037DBA",
"j 	c #8CB3D4",
"k 	c #8FB5D5",
"l 	c #92B8D7",
"m 	c #96BBD9",
"n 	c #95BDDD",
"o 	c #8CA7BE",
"p 	c #B1B1B1",
"q 	c #8BA6BE",
"r 	c #EBFBFF",
"s 	c #ECFCFF",
"t 	c #F0FFFF",
"u 	c #98BCD8",
"v 	c #F6FFFF",
"w 	c #D7D7D8",
"x 	c #999A9B",
"y 	c #DBD9DA",
"z 	c #F2FDFF",
"A 	c #F3FEFF",
"B 	c #F7FFFF",
"C 	c #9DBEDA",
"D 	c #FEFFFF",
"E 	c #B2B8BC",
"F 	c #97999A",
"G 	c #BBBBBC",
"H 	c #939394",
"I 	c #BCBBBC",
"J 	c #9B9C9D",
"K 	c #437F9E",
"L 	c #99B9D4",
"M 	c #9ABAD5",
"N 	c #9EBDD7",
"O 	c #A5C5DF",
"P 	c #A9A9AB",
"Q 	c #909192",
"R 	c #9CB6CC",
"S 	c #9DB7CC",
"T 	c #919293",
"U 	c #B0AFB0",
"V 	c #087AB4",
"W 	c #FDFFFF",
"X 	c #A8C6E0",
"Y 	c #A8A8AA",
"Z 	c #8D8D8F",
"` 	c #AECEE9",
" .	c #908F90",
"..	c #AFAEAF",
"+.	c #097BB4",
"@.	c #A7C2DB",
"#.	c #EBEAE9",
"$.	c #C4C6C6",
"%.	c #939395",
"&.	c #B3B3B5",
"*.	c #8B8D8E",
"=.	c #8D8D8E",
"-.	c #B5B5B6",
";.	c #989798",
">.	c #3A7FA1",
",.	c #CDCCCD",
"'.	c #989596",
").	c #989696",
"!.	c #D1CFD0",
"~.	c #1982B7",
"{.	c #077AB4",
"].	c #037EBB",
"^.	c #2D7FA8",
"/.	c #ACA8A8",
"(.	c #827C7B",
". + @ # $ % $ $ % $ $ % @ + .   ",
"+ & & & & & & & & & & & & & +   ",
"* & = - ; > , , > , , ' ) & *   ",
"! & ~ { ] ^ / / ^ ( ( _ : & !   ",
"< & [ } | 1 2 2 3 4 5 6 7 & 8   ",
"< & 9 0 a b c d e f g g h & i   ",
"< & j k l m n g g o p p q g g   ",
"< & r s t u v g w x w w x y g   ",
"< & z A B C D E F G H H I J K   ",
"< & L M N O g P w Q R S T w U g ",
"V & W W & X g Y w Z & `  .w ..g ",
"+.& & & & @.#.$.%.&.*.=.-.;.>.  ",
"+ & & & & & & g ,.'.w w ).!.g   ",
"~.+ +.{.V 8 ].g g ^././.^.g g   ",
"                    (.(.        ",
"                                "};
