/* XPM */
static char const * table_select_row_xpm[] = {
"16 16 72 1",
" 	c None",
".	c #1984B9",
"+	c #0E7EB6",
"@	c #097CB6",
"#	c #077BB6",
"$	c #087BB6",
"%	c #087BB5",
"&	c #FFFFFF",
"*	c #097CB5",
"=	c #FFC344",
"-	c #FFC549",
";	c #FFC647",
">	c #7EB5E3",
",	c #FFC746",
"'	c #FFC646",
")	c #FFC444",
"!	c #097BB5",
"~	c #7CB1DD",
"{	c #7EB4E0",
"]	c #82B6E0",
"^	c #86B7DE",
"/	c #83B6DF",
"(	c #81B5DF",
"_	c #7CB2DD",
":	c #097BB4",
"<	c #D8F6FF",
"[	c #DAF7FF",
"}	c #DFFAFF",
"|	c #8CB7D8",
"1	c #E0FBFF",
"2	c #DEFAFF",
"3	c #E6FCFF",
"4	c #EAFEFF",
"5	c #EFFFFF",
"6	c #9ABED9",
"7	c #F0FFFF",
"8	c #EEFFFF",
"9	c #E7FCFF",
"0	c #0A7CB5",
"a	c #0057AF",
"b	c #065BB0",
"c	c #085CB1",
"d	c #095EB2",
"e	c #0A5EB3",
"f	c #085CB2",
"g	c #0B7DB5",
"h	c #065BB1",
"i	c #ADCFEA",
"j	c #ACCEEA",
"k	c #72A3CD",
"l	c #ABCEEA",
"m	c #73A4CE",
"n	c #B0D1EB",
"o	c #065CB2",
"p	c #71A3CD",
"q	c #ABCDEA",
"r	c #AFD1EB",
"s	c #0056AF",
"t	c #035AB0",
"u	c #055BB1",
"v	c #075DB2",
"w	c #085DB2",
"x	c #087BB4",
"y	c #ABC5DA",
"z	c #077AB4",
"A	c #FCFFFF",
"B	c #FBFFFF",
"C	c #A0BED7",
"D	c #FDFFFF",
"E	c #A1BCD5",
"F	c #1779AA",
"G	c #087AB4",
".+@#$%$$%$$%$@+.",
"+&&&&&&&&&&&&&&+",
"*&=-;>,,>,,>')&*",
"!&~{]^//^//^(_&!",
":&<[}|11|11|2<&:",
":&345677677689&:",
"0&abcdccdccefa&0",
"g&hijkllkllmno&g",
"g&hijpqqpqqmro&g",
"0&stuvuuvuuwus&0",
"x&&&&y&&y&&y&&&x",
"z&AB&C&&C&&C&D&z",
":&&&&E&&E&&E&&&:",
"+&&&&&&&&&&&&&&+",
"F+:zGxGGxGGxG:+F",
"                "};
