/* XPM */
static char const * text_columns_xpm[] = {
"16 16 58 1",
" 	c None",
".	c #A5A5A5",
"+	c #A2A2A2",
"@	c #A0A0A0",
"#	c #9F9F9F",
"$	c #FFFFFF",
"%	c #E6E7E8",
"&	c #E8E9EA",
"*	c #E6E7E9",
"=	c #E3E4E5",
"-	c #E7E8E9",
";	c #434648",
">	c #5F6062",
",	c #737577",
"'	c #646568",
")	c #494C4E",
"!	c #EBECEB",
"~	c #EBECEC",
"{	c #444749",
"]	c #606063",
"^	c #646567",
"/	c #484B4D",
"(	c #F4F5F6",
"_	c #F9FAFB",
":	c #F5F6F7",
"<	c #EDEEEF",
"[	c #F6F7F8",
"}	c #F8F9FA",
"|	c #444649",
"1	c #606163",
"2	c #747678",
"3	c #666769",
"4	c #4A4C4F",
"5	c #F1F2F2",
"6	c #45474A",
"7	c #616264",
"8	c #656668",
"9	c #494B4E",
"0	c #FBFCFD",
"a	c #F2F3F4",
"b	c #FEFFFF",
"c	c #FAFBFC",
"d	c #444648",
"e	c #494B4D",
"f	c #F7F8F7",
"g	c #434548",
"h	c #5F5F62",
"i	c #727477",
"j	c #484A4C",
"k	c #FCFDFD",
"l	c #484A4D",
"m	c #FEFEFE",
"n	c #414345",
"o	c #5C5D5F",
"p	c #6F7174",
"q	c #404245",
"r	c #45484A",
"s	c #979797",
".+@##########@+.",
"+$$$$$$$$$$$$$$+",
"@$%&&&*==-&&&%$@",
"@$;>,')!~{],^/$@",
"@$(___:<<[__}($@",
"@$|12345567289$@",
"@$0$$$0aa0$$bc$@",
"@$d],8eff|1,'e$@",
"@$$$$$$}}$$$$$$@",
"@$ghi^jkkg>i^l$@",
"@$$$$$$mm$$$$$$@",
"@$nop76$$qop7r$@",
"@$$$$$$$$$$$$$$@",
"+$$$$$$$$$$$$$$+",
"s+############+s",
"                "};
